<svg width="1440" height="506" viewBox="0 0 1440 506" fill="none" xmlns="http://www.w3.org/2000/svg">
<rect width="1440" height="505.585" fill="#F2F0FE"/>
<path d="M812.818 186C807.689 186 803.843 189.953 803.843 195.189V223.966C793.906 215.098 780.871 210.041 767.088 210.041C747.036 210.041 729.549 220.868 720.004 236.895C710.458 220.832 692.971 210.041 672.919 210.041C659.172 210.041 646.101 215.098 636.164 223.966V195.189C636.2 189.953 632.318 186 627.189 186C622.131 186 618 190.131 618 195.189V264.568C618 294.842 642.646 319.488 672.919 319.488C692.971 319.488 710.458 308.589 720.004 292.42C729.549 308.589 747.036 319.488 767.088 319.488C797.361 319.488 822.007 294.842 822.007 264.568V195.189C822.007 190.131 817.876 186 812.818 186ZM635.772 264.568C635.772 263.571 635.737 262.574 635.915 261.541L636.057 260.259C636.128 259.76 636.2 259.262 636.164 259.262C638.622 241.026 653.936 227.777 672.528 227.777C693.256 227.777 709.461 243.911 709.461 264.533C709.461 284.905 692.9 301.466 672.528 301.466C652.262 301.502 635.772 284.941 635.772 264.568ZM767.515 301.502C747.143 301.502 730.581 284.941 730.581 264.568C730.581 243.982 746.822 227.813 767.515 227.813C786.106 227.813 801.421 241.062 803.843 258.656C803.843 259.19 803.914 259.689 803.985 260.259L804.128 261.505C804.306 262.503 804.27 263.535 804.27 264.533C804.235 284.941 787.78 301.502 767.515 301.502Z" fill="#6957F0" fill-opacity="0.5"/>
<path d="M663.125 240.244C656.963 240.244 652.013 245.231 652.013 251.357C652.013 257.518 656.999 262.469 663.125 262.469C669.251 262.469 674.237 257.482 674.237 251.357C674.237 245.231 669.251 240.244 663.125 240.244Z" fill="#6957F0" fill-opacity="0.5"/>
<path d="M757.685 240.244C751.524 240.244 746.573 245.231 746.573 251.357C746.573 257.518 751.559 262.469 757.685 262.469C763.811 262.469 768.797 257.482 768.797 251.357C768.833 245.231 763.847 240.244 757.685 240.244Z" fill="#6957F0" fill-opacity="0.5"/>
</svg>
