<svg width="211" height="211" viewBox="0 0 211 211" fill="none" xmlns="http://www.w3.org/2000/svg">
<rect width="211" height="211" fill="#F2F0FE"/>
<path d="M160.756 66C157.682 66 155.377 68.3693 155.377 71.5069V88.7535C149.422 83.4386 141.609 80.4077 133.349 80.4077C121.332 80.4077 110.852 86.8965 105.131 96.5016C99.4109 86.8751 88.9306 80.4077 76.9136 80.4077C68.6745 80.4077 60.841 83.4386 54.8858 88.7535V71.5069C54.9071 68.3693 52.5806 66 49.5069 66C46.476 66 44 68.476 44 71.5069V113.086C44 131.229 58.7705 146 76.9136 146C88.9306 146 99.4109 139.469 105.131 129.778C110.852 139.469 121.332 146 133.349 146C151.492 146 166.263 131.229 166.263 113.086V71.5069C166.263 68.476 163.787 66 160.756 66ZM54.651 113.086C54.651 112.489 54.6297 111.891 54.7364 111.272L54.8218 110.504C54.8645 110.205 54.9071 109.906 54.8858 109.906C56.3586 98.9776 65.5368 91.0374 76.6788 91.0374C89.1014 91.0374 98.8132 100.707 98.8132 113.065C98.8132 125.274 88.8879 135.2 76.6788 135.2C64.5336 135.221 54.651 125.296 54.651 113.086ZM133.605 135.221C121.396 135.221 111.471 125.296 111.471 113.086C111.471 100.749 121.204 91.0587 133.605 91.0587C144.747 91.0587 153.925 98.9989 155.377 109.543C155.377 109.863 155.419 110.162 155.462 110.504L155.547 111.251C155.654 111.848 155.633 112.467 155.633 113.065C155.612 125.296 145.75 135.221 133.605 135.221Z" fill="#6957F0" fill-opacity="0.5"/>
<path d="M71.0436 98.509C67.3509 98.509 64.384 101.497 64.384 105.169C64.384 108.861 67.3723 111.828 71.0436 111.828C74.7149 111.828 77.7031 108.84 77.7031 105.169C77.7031 101.497 74.7149 98.509 71.0436 98.509Z" fill="#6957F0" fill-opacity="0.5"/>
<path d="M127.714 98.509C124.022 98.509 121.055 101.497 121.055 105.169C121.055 108.861 124.043 111.828 127.714 111.828C131.386 111.828 134.374 108.84 134.374 105.169C134.395 101.497 131.407 98.509 127.714 98.509Z" fill="#6957F0" fill-opacity="0.5"/>
</svg>
