<svg width="157" height="28" viewBox="0 0 157 28" fill="none" xmlns="http://www.w3.org/2000/svg">
<path d="M19.9334 17.793C19.9206 19.186 19.6443 20.4999 19.1173 21.7345C18.584 22.9757 17.8707 24.0519 16.9711 24.9696C16.0714 25.8873 15.0176 26.6135 13.8095 27.1483C12.6014 27.6831 11.3162 27.9538 9.94745 27.9538C8.56586 27.9538 7.27423 27.6831 6.06614 27.1483C4.85805 26.6135 3.80419 25.8741 2.90455 24.9432C2.00491 24.0123 1.29163 22.9229 0.77112 21.6751C0.263466 20.4405 0 19.1134 0 17.7071C0 16.2877 0.263466 14.954 0.783972 13.7128C1.30448 12.465 2.01776 11.3822 2.9174 10.4579C3.81704 9.5336 4.87091 8.80075 6.07899 8.26597C7.28708 7.7312 8.57871 7.4605 9.9603 7.4605C10.9628 7.4605 11.9202 7.60575 12.8391 7.90285C13.7516 8.19995 14.6063 8.60929 15.4031 9.13747V2.42962C15.4031 2.0863 15.461 1.76939 15.5702 1.47229C15.6794 1.1818 15.8401 0.92431 16.0393 0.699835C16.2385 0.47536 16.4763 0.303702 16.7526 0.184862C17.016 0.0594199 17.3181 0 17.6522 0C17.9735 0 18.2691 0.0594199 18.5519 0.184862C18.8282 0.310304 19.0724 0.481962 19.2716 0.699835C19.4708 0.92431 19.6314 1.1818 19.7535 1.47229C19.8692 1.76939 19.9334 2.0863 19.9334 2.42962V17.793ZM15.3967 17.7071C15.3967 16.9347 15.2553 16.2084 14.9662 15.5284C14.677 14.8484 14.2914 14.2542 13.7966 13.7524C13.3018 13.2506 12.7235 12.8545 12.0745 12.5574C11.419 12.2669 10.7121 12.1151 9.9603 12.1151C9.20846 12.1151 8.5016 12.2603 7.84614 12.5574C7.19069 12.8545 6.61235 13.2506 6.11755 13.7524C5.62275 14.2542 5.23719 14.8484 4.95444 15.5284C4.67813 16.2084 4.53676 16.9347 4.53676 17.7071C4.53676 18.4664 4.67813 19.186 4.95444 19.8661C5.23076 20.5461 5.61632 21.1403 6.1047 21.6487C6.59307 22.157 7.16499 22.5598 7.83329 22.8503C8.49517 23.1408 9.20203 23.2926 9.95387 23.2926C10.7057 23.2926 11.4126 23.1474 12.068 22.8503C12.7235 22.5598 13.2954 22.157 13.7902 21.6487C14.285 21.1403 14.677 20.5461 14.9597 19.8661C15.2489 19.186 15.3967 18.4664 15.3967 17.7071Z" fill="#6957F0"/>
<path d="M24.4316 2.96452C24.4316 2.608 24.4959 2.27129 24.6308 1.95438C24.7658 1.63748 24.9393 1.36679 25.1642 1.13571C25.3891 0.904632 25.6526 0.726372 25.961 0.587725C26.2695 0.449079 26.5908 0.383057 26.9249 0.383057C27.2591 0.383057 27.5804 0.449079 27.8888 0.587725C28.1973 0.726372 28.4607 0.904632 28.6921 1.13571C28.9234 1.36679 29.1033 1.63748 29.2383 1.95438C29.3732 2.27129 29.4375 2.608 29.4375 2.96452C29.4375 3.30784 29.3732 3.63135 29.2383 3.94165C29.0969 4.25196 28.917 4.52265 28.6857 4.74712C28.4543 4.9782 28.1844 5.15646 27.8824 5.29511C27.574 5.43375 27.2527 5.49977 26.9185 5.49977C26.5843 5.49977 26.263 5.43375 25.9546 5.29511C25.6462 5.15646 25.3827 4.9782 25.1578 4.74712C24.9329 4.51604 24.7594 4.25196 24.6244 3.94165C24.4959 3.63795 24.4316 3.30784 24.4316 2.96452ZM29.1997 25.379C29.1997 25.696 29.1419 25.9931 29.0198 26.2836C28.9041 26.5674 28.7435 26.8183 28.5379 27.023C28.3322 27.2277 28.1009 27.3927 27.8246 27.5182C27.5547 27.637 27.2591 27.703 26.9378 27.703C26.6293 27.703 26.3402 27.6436 26.0574 27.5182C25.7811 27.3993 25.5369 27.2343 25.3249 27.023C25.1128 26.8117 24.9521 26.5674 24.8365 26.2836C24.7208 25.9997 24.6565 25.696 24.6565 25.379V10.0355C24.6565 9.71859 24.7208 9.42149 24.8429 9.1442C24.9714 8.86691 25.1385 8.61602 25.3441 8.40475C25.5562 8.18688 25.8004 8.02182 26.0767 7.90298C26.353 7.78414 26.655 7.71812 26.9763 7.71812C27.2976 7.71812 27.5932 7.77754 27.8567 7.90298C28.1202 8.02182 28.3579 8.19348 28.5571 8.40475C28.7563 8.62262 28.917 8.86691 29.0262 9.1442C29.1355 9.42149 29.1933 9.71859 29.1933 10.0355V25.379H29.1997Z" fill="#6957F0"/>
<path d="M38.3826 19.2982C37.785 19.0407 37.1617 18.7568 36.5191 18.4399C35.8765 18.123 35.2917 17.7401 34.7648 17.2911C34.2314 16.8422 33.8009 16.3008 33.4603 15.6802C33.1197 15.0596 32.9462 14.3069 32.9462 13.4355C32.9462 12.531 33.1197 11.7123 33.4667 10.9728C33.8137 10.2334 34.3021 9.60617 34.919 9.07799C35.5423 8.55642 36.2749 8.15368 37.1231 7.87639C37.9713 7.5991 38.9095 7.46045 39.9248 7.46045C40.5096 7.46045 41.1201 7.50666 41.7434 7.5991C42.3731 7.69153 42.9643 7.84338 43.5298 8.04805C44.0953 8.25932 44.603 8.53001 45.0464 8.86672C45.4897 9.20343 45.8368 9.60617 46.0681 10.0815C46.2801 10.5437 46.3508 10.9926 46.2866 11.4482C46.2223 11.9037 46.0681 12.2669 45.8175 12.5574C45.6247 12.7884 45.3934 12.9667 45.1363 13.0921C44.8793 13.2176 44.603 13.2836 44.3074 13.2836C44.0825 13.2836 43.8383 13.2242 43.5748 13.1119C43.2792 12.9271 43.0157 12.762 42.7716 12.6168C42.5274 12.4715 42.2768 12.3527 42.0197 12.2537C41.7627 12.1546 41.4864 12.0754 41.2036 12.0292C40.9144 11.9764 40.5931 11.9566 40.2333 11.9566C39.3272 11.9566 38.6396 12.082 38.1705 12.3329C37.7014 12.5838 37.4701 12.9667 37.4701 13.4817C37.4701 13.7524 37.5601 13.9768 37.7336 14.1617C37.9071 14.34 38.1448 14.505 38.4469 14.6437C38.7489 14.7823 39.1087 14.921 39.5329 15.053C39.957 15.185 40.4196 15.3237 40.9273 15.4821C41.7498 15.7396 42.5338 16.0433 43.2792 16.3866C44.0246 16.73 44.6801 17.1525 45.2456 17.6411C45.8111 18.1362 46.2609 18.7172 46.595 19.3841C46.9292 20.0509 47.0962 20.8497 47.0962 21.7807C47.0962 22.6389 46.9163 23.4444 46.5629 24.1971C46.2095 24.9497 45.7147 25.6033 45.0913 26.1645C44.4616 26.7257 43.7162 27.1615 42.8551 27.485C41.994 27.8085 41.043 27.9669 40.0084 27.9669C39.3658 27.9669 38.6846 27.9075 37.9713 27.7821C37.2516 27.6632 36.5576 27.452 35.8829 27.1615C35.2082 26.871 34.5848 26.488 34.0129 26.0193C33.441 25.5571 32.9783 24.9761 32.6313 24.2895C32.3807 23.8141 32.2522 23.3784 32.2522 22.9691C32.2522 22.5597 32.3422 22.2032 32.5157 21.8929C32.6892 21.5826 32.9334 21.3449 33.2482 21.1733C33.5631 21.0016 33.9101 20.9158 34.2828 20.9158C34.617 20.9158 34.964 20.9884 35.3302 21.1402C35.6901 21.2921 36.0564 21.5298 36.4162 21.8599C36.5833 22.0778 36.7954 22.2758 37.046 22.4739C37.2966 22.672 37.5729 22.837 37.8814 22.9889C38.1898 23.1407 38.5175 23.2596 38.8774 23.3454C39.2308 23.4312 39.6035 23.4774 39.9955 23.4774C40.3425 23.4774 40.6703 23.4378 40.9787 23.3586C41.2871 23.2794 41.557 23.1671 41.7948 23.0285C42.0326 22.8898 42.2189 22.7116 42.3603 22.5135C42.5017 22.3154 42.5723 22.0844 42.5723 21.8269C42.5723 21.5232 42.4181 21.2525 42.1097 21.0016C41.8012 20.7507 41.4285 20.5196 40.9916 20.3018C40.5546 20.0839 40.0919 19.899 39.61 19.734C39.1216 19.5557 38.7167 19.4105 38.3826 19.2982Z" fill="#6957F0"/>
<path d="M69.7735 17.7335V26.7125C69.7735 27.3595 69.3558 27.7029 68.8546 27.7029C68.3534 27.7029 67.9742 27.2737 67.9742 26.7125V23.3586C66.2585 26.0655 63.3732 28 59.6526 28C54.1712 28 49.8208 23.3586 49.8208 17.7269C49.8208 12.0094 54.2933 7.45386 59.8197 7.45386C65.346 7.45386 69.7735 12.016 69.7735 17.7335ZM67.9742 18.9351V18.8031C67.9742 18.671 68.0192 18.4598 68.0578 18.2419V17.7269C68.0578 12.9997 64.4592 9.21665 59.8197 9.21665C55.2186 9.21665 51.5365 12.9997 51.5365 17.7269C51.5365 22.322 55.1737 26.1909 59.8197 26.1909C64.048 26.1975 67.3895 22.9757 67.9742 18.9351Z" fill="#6957F0"/>
<path d="M91.821 17.2119V26.9238C91.821 27.485 91.4419 27.8679 90.9021 27.8679C90.4394 27.8679 89.9832 27.4784 89.9832 26.9238V17.1723C89.9832 12.8347 87.1364 9.22325 82.8696 9.22325C78.6027 9.22325 75.4218 12.7488 75.4218 17.1723V26.9304C75.4218 27.4916 75.0877 27.8745 74.5415 27.8745C74.0402 27.8745 73.6226 27.485 73.6226 26.9304V17.2119C73.6226 11.7981 77.5553 7.45386 82.8246 7.45386C88.1003 7.46046 91.821 11.7981 91.821 17.2119Z" fill="#6957F0"/>
<path d="M114.556 17.793C114.543 19.186 114.273 20.4999 113.74 21.7345C113.213 22.9757 112.493 24.0519 111.594 24.9696C110.694 25.8873 109.64 26.6135 108.432 27.1483C107.224 27.6831 105.939 27.9538 104.57 27.9538C103.189 27.9538 101.897 27.6831 100.689 27.1483C99.4808 26.6135 98.4333 25.8741 97.5273 24.9432C96.6276 24.0123 95.9143 22.9229 95.3938 21.6751C94.8733 20.4273 94.6099 19.1068 94.6099 17.7005C94.6099 16.2811 94.8733 14.9474 95.3938 13.7062C95.9143 12.4584 96.6276 11.3756 97.5273 10.4513C98.4269 9.527 99.4808 8.79415 100.689 8.25937C101.897 7.72459 103.189 7.4539 104.57 7.4539C105.573 7.4539 106.53 7.59915 107.449 7.89625C108.362 8.19335 109.216 8.60269 110.013 9.13087V2.42962C110.013 2.0863 110.071 1.76939 110.18 1.47229C110.289 1.1818 110.45 0.92431 110.649 0.699835C110.848 0.47536 111.086 0.303702 111.362 0.184862C111.632 0.0660222 111.941 0 112.275 0C112.596 0 112.898 0.0594199 113.175 0.184862C113.451 0.310304 113.695 0.481962 113.894 0.699835C114.093 0.92431 114.254 1.1818 114.376 1.47229C114.492 1.76939 114.556 2.0863 114.556 2.42962V17.793ZM110.019 17.7071C110.019 16.9347 109.878 16.2084 109.589 15.5284C109.3 14.8484 108.914 14.2542 108.419 13.7524C107.925 13.2506 107.346 12.8545 106.691 12.5574C106.035 12.2669 105.328 12.1151 104.577 12.1151C103.825 12.1151 103.118 12.2603 102.462 12.5574C101.807 12.8545 101.229 13.2506 100.734 13.7524C100.239 14.2542 99.8535 14.8484 99.5707 15.5284C99.2944 16.2084 99.153 16.9347 99.153 17.7071C99.153 18.4664 99.2944 19.186 99.5707 19.8661C99.8471 20.5461 100.233 21.1403 100.721 21.6487C101.209 22.157 101.781 22.5598 102.45 22.8503C103.111 23.1408 103.818 23.2926 104.57 23.2926C105.322 23.2926 106.029 23.1474 106.684 22.8503C107.34 22.5598 107.918 22.157 108.413 21.6487C108.908 21.1403 109.3 20.5461 109.582 19.8661C109.878 19.186 110.019 18.4664 110.019 17.7071Z" fill="#6957F0"/>
<path d="M122.82 19.7934C123 20.3216 123.257 20.8102 123.585 21.2459C123.912 21.6816 124.292 22.058 124.722 22.3617C125.153 22.672 125.628 22.9097 126.142 23.0681C126.656 23.2332 127.202 23.3124 127.774 23.3124C129.214 23.3124 130.338 22.9229 131.161 22.1504C131.437 21.9523 131.714 21.8005 131.977 21.7081C132.24 21.6156 132.491 21.5694 132.729 21.5694C133.121 21.5694 133.468 21.675 133.776 21.8797C134.085 22.0844 134.335 22.3551 134.528 22.6852C134.67 22.9163 134.772 23.1605 134.83 23.4246C134.888 23.6887 134.907 23.9594 134.869 24.2301C134.83 24.5008 134.753 24.7715 134.618 25.0356C134.483 25.2997 134.284 25.5373 134.02 25.7552C133.712 26.0391 133.365 26.3164 132.973 26.5805C132.581 26.8446 132.131 27.0757 131.624 27.2803C131.116 27.485 130.544 27.6434 129.908 27.7623C129.272 27.8811 128.558 27.9472 127.762 27.9472C126.38 27.9472 125.082 27.6765 123.874 27.1417C122.659 26.6069 121.599 25.8675 120.693 24.9365C119.787 24.0056 119.067 22.9229 118.54 21.6816C118.007 20.4404 117.743 19.1134 117.743 17.6939C117.743 16.2744 118.007 14.9408 118.54 13.6996C119.067 12.4517 119.787 11.369 120.693 10.4447C121.599 9.52036 122.659 8.78752 123.874 8.25274C125.088 7.71796 126.386 7.44727 127.762 7.44727C129.13 7.44727 130.415 7.71135 131.624 8.23953C132.832 8.76771 133.892 9.48735 134.804 10.3985C135.717 11.3096 136.443 12.3791 136.983 13.6137C137.516 14.8484 137.793 16.1622 137.812 17.5685C137.812 18.2287 137.606 18.7635 137.195 19.1662C136.784 19.5755 136.244 19.7802 135.576 19.7802H122.82V19.7934ZM133.153 15.9245C132.999 15.3369 132.761 14.8087 132.433 14.3334C132.106 13.858 131.714 13.4619 131.251 13.1318C130.788 12.8017 130.274 12.5508 129.702 12.3791C129.13 12.2075 128.526 12.1216 127.884 12.1216C127.241 12.1216 126.637 12.2141 126.072 12.3923C125.506 12.5706 124.998 12.8281 124.542 13.1648C124.086 13.5015 123.7 13.9042 123.379 14.3664C123.058 14.8351 122.82 15.3501 122.666 15.9245H133.153Z" fill="#6957F0"/>
<path d="M147.734 20.2422L152.65 9.13068C152.842 8.68833 153.125 8.33841 153.498 8.08753C153.864 7.83664 154.269 7.7112 154.699 7.7112C155.034 7.7112 155.348 7.78383 155.638 7.92908C155.933 8.06112 156.177 8.23938 156.383 8.46386C156.582 8.69493 156.736 8.94582 156.846 9.22971C156.949 9.50701 157 9.80411 157 10.121C157 10.4379 156.929 10.7416 156.788 11.0453L149.822 26.2832C149.597 26.7586 149.295 27.1019 148.91 27.3264C148.524 27.5509 148.164 27.6763 147.83 27.7027C147.303 27.7027 146.853 27.5707 146.481 27.3066C146.108 27.0425 145.832 26.6992 145.632 26.2832L138.654 11.0255C138.512 10.7218 138.442 10.4181 138.442 10.1012C138.442 9.7843 138.493 9.4872 138.596 9.20991C138.699 8.93261 138.853 8.67513 139.059 8.44405C139.258 8.21297 139.502 8.03471 139.778 7.90927C139.932 7.83664 140.087 7.78383 140.241 7.75082C140.395 7.7178 140.549 7.698 140.704 7.698C141.147 7.698 141.558 7.82344 141.925 8.07432C142.291 8.32521 142.574 8.67513 142.773 9.11747L147.734 20.2422Z" fill="#6957F0"/>
</svg>
