<svg width="25" height="26" viewBox="0 0 25 26" fill="none" xmlns="http://www.w3.org/2000/svg">
<path d="M5.47478 8.57397H0.497681V25.2955H5.47478V8.57397Z" fill="#2E2E2E"/>
<path d="M2.98626 6.36071C4.63552 6.36071 5.97252 5.03956 5.97252 3.40985C5.97252 1.78013 4.63552 0.458984 2.98626 0.458984C1.33699 0.458984 0 1.78013 0 3.40985C0 5.03956 1.33699 6.36071 2.98626 6.36071Z" fill="#2E2E2E"/>
<path d="M13.4383 16.6887C13.4383 14.4756 14.4337 13.0001 16.4245 13.0001C18.1665 13.0001 19.1619 14.2297 19.1619 16.6887C19.1619 19.1478 19.1619 25.2954 19.1619 25.2954H24.139C24.139 25.2954 24.139 19.1478 24.139 14.7215C24.139 10.2952 21.6505 8.08203 18.1665 8.08203C14.6826 8.08203 13.1894 10.787 13.1894 10.787V8.57384H8.46118V25.2954H13.1894C13.4383 25.2954 13.4383 19.1478 13.4383 16.6887Z" fill="#2E2E2E"/>
</svg>
