<svg width="853" height="809" viewBox="0 0 853 809" fill="none" xmlns="http://www.w3.org/2000/svg">
<path d="M463.041 196.132C258.696 155.659 70.8655 -106.428 49.7504 136.939C33.5587 323.562 167.837 569.34 354.46 585.531C541.082 601.723 770.528 506.038 786.72 319.415C802.912 132.793 698.587 242.785 463.041 196.132Z" fill="url(#paint0_linear_254_8)"/>
<path d="M497.89 224.624C448.828 207.038 402.85 175.9 360.602 142.814C341.202 127.621 322.584 112.014 304.814 97.1176C303.235 95.7939 301.662 94.4758 300.097 93.164C280.91 77.0897 262.738 61.9778 245.653 49.2713C228.568 36.5641 212.582 26.2709 197.772 19.8287C182.961 13.3862 169.348 10.8052 156.996 13.4899C144.652 16.1731 133.526 24.1252 123.704 38.8351C113.878 53.5499 105.365 75.0159 98.252 104.697C76.4401 195.719 89.6159 306.944 131.01 400.867C172.406 494.793 241.998 571.368 332.977 593.169C424.015 614.985 529.778 610.737 618.228 578.279C706.677 545.822 777.781 485.169 799.582 394.193C810.495 348.652 811.19 320.407 802.638 302.36C794.1 284.343 776.307 276.419 749.99 271.638C735.288 268.967 717.941 267.282 698.107 265.356C646.981 260.389 579.335 253.818 497.89 224.624Z" stroke="#808080" stroke-width="0.5"/>
<path d="M302.401 773C303.588 773 304.774 773.198 305.763 773.395C306.949 773.593 307.938 773.989 309.124 774.384C310.113 774.78 311.102 775.373 312.09 775.966C313.079 776.559 313.87 777.35 314.661 778.141C315.452 778.932 316.243 779.921 316.836 780.91C317.429 781.898 318.023 782.887 318.418 784.073C318.814 785.26 319.209 786.249 319.407 787.435C319.605 788.621 319.802 789.808 319.802 790.994C319.802 792.181 319.605 793.367 319.407 794.554C319.209 795.74 318.814 796.927 318.418 797.915C318.023 799.102 317.429 800.09 316.836 801.079C316.243 802.068 315.452 803.056 314.661 803.847C313.87 804.638 312.881 805.429 312.09 806.023C311.102 806.616 310.113 807.209 309.124 807.605C308.136 808 306.949 808.395 305.763 808.593C304.576 808.791 303.588 808.989 302.401 808.989C301.215 808.989 300.028 808.791 299.04 808.593C298.051 808.593 296.864 808.395 295.876 807.802C294.887 807.407 293.898 806.814 292.91 806.22C291.921 805.627 291.13 804.836 290.339 804.045C289.548 803.254 288.757 802.266 288.164 801.277C287.571 800.288 286.977 799.299 286.582 798.113C286.186 796.927 285.791 795.938 285.593 794.751C285.198 793.565 285 792.379 285 791.192C285 790.006 285.198 788.819 285.395 787.633C285.593 786.446 285.989 785.26 286.384 784.271C286.78 783.085 287.373 782.096 287.966 781.107C288.559 780.119 289.35 779.13 290.141 778.339C290.932 777.548 291.723 776.757 292.712 775.966C293.701 775.373 294.689 774.78 295.678 774.384C296.864 773.989 298.051 773.593 299.04 773.395C300.226 773.198 301.412 773 302.401 773Z" fill="#6957F0"/>
<g opacity="0.6">
<path d="M502.938 563C503.684 563 504.429 563.126 505.051 563.251C505.797 563.377 506.418 563.628 507.164 563.88C507.785 564.131 508.407 564.508 509.028 564.885C509.65 565.262 510.147 565.765 510.644 566.268C511.141 566.77 511.638 567.399 512.011 568.027C512.384 568.656 512.757 569.284 513.006 570.038C513.254 570.792 513.503 571.421 513.627 572.175C513.751 572.929 513.876 573.683 513.876 574.437C513.876 575.191 513.751 575.945 513.627 576.699C513.503 577.454 513.254 578.208 513.006 578.836C512.757 579.59 512.384 580.219 512.011 580.847C511.638 581.475 511.141 582.104 510.644 582.607C510.147 583.109 509.525 583.612 509.028 583.989C508.407 584.366 507.785 584.743 507.164 584.995C506.542 585.246 505.797 585.497 505.051 585.623C504.305 585.749 503.684 585.874 502.938 585.874C502.192 585.874 501.446 585.749 500.825 585.623C500.203 585.623 499.458 585.497 498.836 585.12C498.215 584.869 497.593 584.492 496.972 584.115C496.35 583.738 495.853 583.235 495.356 582.732C494.859 582.23 494.362 581.601 493.989 580.973C493.616 580.344 493.243 579.716 492.994 578.962C492.746 578.208 492.497 577.579 492.373 576.825C492.124 576.071 492 575.317 492 574.563C492 573.809 492.124 573.055 492.249 572.301C492.373 571.546 492.621 570.792 492.87 570.164C493.119 569.41 493.492 568.781 493.864 568.153C494.237 567.525 494.734 566.896 495.232 566.393C495.729 565.891 496.226 565.388 496.847 564.885C497.469 564.508 498.09 564.131 498.712 563.88C499.458 563.628 500.203 563.377 500.825 563.251C501.571 563.126 502.316 563 502.938 563Z" fill="#6957F0"/>
</g>
<defs>
<linearGradient id="paint0_linear_254_8" x1="147.278" y1="639.727" x2="395.994" y2="-15.8016" gradientUnits="userSpaceOnUse">
<stop stop-color="#B2C7F4" stop-opacity="0.3"/>
<stop stop-color="#B2C7F4" stop-opacity="0.3"/>
<stop offset="0.757478" stop-color="#E9FFFF" stop-opacity="0.8"/>
</linearGradient>
</defs>
</svg>
