<svg width="36" height="25" viewBox="0 0 36 25" fill="none" xmlns="http://www.w3.org/2000/svg">
<path d="M13.1893 23.2953C14.1847 23.0494 14.9313 22.8035 15.6779 22.0658C16.4244 21.574 16.9221 21.0822 17.171 20.3445C17.9176 19.3609 18.1664 18.1313 18.1664 16.9018C18.1664 15.6723 17.9176 14.4428 17.4198 13.705C16.9221 12.7214 15.9267 12.2296 14.9313 11.7378C15.429 11.246 15.9267 10.7542 16.4244 10.2624C17.171 9.27874 17.4198 8.29512 17.4198 6.81969C17.4198 5.59017 17.171 4.36064 16.4244 3.37702C15.1802 1.90159 13.4382 0.917969 10.7008 0.917969H0V23.5412H9.9542C11.1985 23.7871 12.1939 23.5412 13.1893 23.2953ZM4.47939 4.85245H9.20763C10.2031 4.85245 11.1985 4.85245 11.945 5.09836C12.6916 5.34426 13.1893 6.08198 13.1893 7.0656C13.1893 8.04922 12.9405 8.78693 12.1939 9.03284C11.4473 9.77056 10.7008 10.0165 9.70534 10.0165H4.47939V4.85245ZM4.47939 19.8527V13.705H9.9542C10.9496 13.705 11.6962 13.9509 12.1939 14.1968C13.1893 14.6887 13.687 15.4264 13.687 16.6559C13.687 18.1313 13.1893 18.869 12.1939 19.6068C11.4473 19.6068 10.7008 19.8527 9.70534 19.8527H4.47939Z" fill="#2E2E2E"/>
<path d="M21.8992 22.0658C23.6412 23.5412 25.3832 24.033 27.6229 24.033C30.3603 24.033 32.3511 23.2953 33.8442 21.5739C34.8397 20.5903 35.3374 19.6067 35.3374 18.6231H30.858C30.6091 19.1149 30.3603 19.6067 29.8626 19.8526C29.3648 20.3444 28.3694 20.5903 27.374 20.5903C26.3786 20.5903 25.632 20.3444 25.1343 19.8526C24.3877 19.3608 23.89 18.1313 23.6412 16.6558H35.5862C35.5862 15.1804 35.5862 14.1968 35.3374 13.2132C35.0885 11.9836 34.5908 10.7541 34.0931 9.7705C33.3465 8.54097 32.3511 7.80326 31.3557 7.31145C30.1114 6.81963 28.8671 6.57373 27.6229 6.57373C25.1343 6.57373 23.3923 7.31144 21.6503 8.78688C20.1572 10.2623 19.4106 12.4755 19.4106 15.4263C19.4106 18.6231 20.1572 20.8362 21.8992 22.0658ZM24.8855 11C25.3832 10.2623 26.3786 10.0164 27.374 10.0164C28.3694 10.0164 29.116 10.2623 29.8626 11C30.6091 11.4918 30.858 12.4755 31.1068 13.705H23.6412C23.89 12.4755 24.3877 11.7377 24.8855 11Z" fill="#2E2E2E"/>
<path d="M32.1023 2.39331H22.397V4.60646H32.1023V2.39331Z" fill="#2E2E2E"/>
</svg>
