<svg width="1319" height="662" viewBox="0 0 1319 662" fill="none" xmlns="http://www.w3.org/2000/svg">
<rect width="1225" height="572" rx="17" fill="#E5E2F9"/>
<rect x="1024" y="64" width="295" height="598" rx="9" fill="#F2F0FE"/>
<path d="M667.756 246C664.682 246 662.377 248.369 662.377 251.507V268.753C656.422 263.439 648.609 260.408 640.349 260.408C628.332 260.408 617.852 266.896 612.131 276.502C606.411 266.875 595.931 260.408 583.914 260.408C575.674 260.408 567.841 263.439 561.886 268.753V251.507C561.907 248.369 559.581 246 556.507 246C553.476 246 551 248.476 551 251.507V293.086C551 311.229 565.771 326 583.914 326C595.931 326 606.411 319.469 612.131 309.778C617.852 319.469 628.332 326 640.349 326C658.492 326 673.263 311.229 673.263 293.086V251.507C673.263 248.476 670.787 246 667.756 246ZM561.651 293.086C561.651 292.489 561.63 291.891 561.736 291.272L561.822 290.504C561.864 290.205 561.907 289.906 561.886 289.906C563.359 278.978 572.537 271.037 583.679 271.037C596.101 271.037 605.813 280.707 605.813 293.065C605.813 305.274 595.888 315.2 583.679 315.2C571.534 315.221 561.651 305.296 561.651 293.086ZM640.605 315.221C628.396 315.221 618.471 305.296 618.471 293.086C618.471 280.749 628.204 271.059 640.605 271.059C651.747 271.059 660.925 278.999 662.377 289.543C662.377 289.863 662.419 290.162 662.462 290.504L662.547 291.251C662.654 291.848 662.633 292.467 662.633 293.065C662.612 305.296 652.75 315.221 640.605 315.221Z" fill="#6957F0" fill-opacity="0.2"/>
<path d="M578.043 278.509C574.351 278.509 571.384 281.497 571.384 285.169C571.384 288.861 574.372 291.828 578.043 291.828C581.715 291.828 584.703 288.84 584.703 285.169C584.703 281.497 581.715 278.509 578.043 278.509Z" fill="#6957F0" fill-opacity="0.2"/>
<path d="M634.714 278.509C631.022 278.509 628.055 281.497 628.055 285.169C628.055 288.861 631.043 291.828 634.714 291.828C638.386 291.828 641.374 288.84 641.374 285.169C641.395 281.497 638.407 278.509 634.714 278.509Z" fill="#6957F0" fill-opacity="0.2"/>
<path d="M1226.76 323C1223.68 323 1221.38 325.369 1221.38 328.507V345.753C1215.42 340.439 1207.61 337.408 1199.35 337.408C1187.33 337.408 1176.85 343.896 1171.13 353.502C1165.41 343.875 1154.93 337.408 1142.91 337.408C1134.67 337.408 1126.84 340.439 1120.89 345.753V328.507C1120.91 325.369 1118.58 323 1115.51 323C1112.48 323 1110 325.476 1110 328.507V370.086C1110 388.229 1124.77 403 1142.91 403C1154.93 403 1165.41 396.469 1171.13 386.778C1176.85 396.469 1187.33 403 1199.35 403C1217.49 403 1232.26 388.229 1232.26 370.086V328.507C1232.26 325.476 1229.79 323 1226.76 323ZM1120.65 370.086C1120.65 369.489 1120.63 368.891 1120.74 368.272L1120.82 367.504C1120.86 367.205 1120.91 366.906 1120.89 366.906C1122.36 355.978 1131.54 348.037 1142.68 348.037C1155.1 348.037 1164.81 357.707 1164.81 370.065C1164.81 382.274 1154.89 392.2 1142.68 392.2C1130.53 392.221 1120.65 382.296 1120.65 370.086ZM1199.61 392.221C1187.4 392.221 1177.47 382.296 1177.47 370.086C1177.47 357.749 1187.2 348.059 1199.61 348.059C1210.75 348.059 1219.93 355.999 1221.38 366.543C1221.38 366.863 1221.42 367.162 1221.46 367.504L1221.55 368.251C1221.65 368.848 1221.63 369.467 1221.63 370.065C1221.61 382.296 1211.75 392.221 1199.61 392.221Z" fill="#6957F0" fill-opacity="0.2"/>
<path d="M1137.04 355.509C1133.35 355.509 1130.38 358.497 1130.38 362.169C1130.38 365.861 1133.37 368.828 1137.04 368.828C1140.71 368.828 1143.7 365.84 1143.7 362.169C1143.7 358.497 1140.71 355.509 1137.04 355.509Z" fill="#6957F0" fill-opacity="0.2"/>
<path d="M1193.71 355.509C1190.02 355.509 1187.05 358.497 1187.05 362.169C1187.05 365.861 1190.04 368.828 1193.71 368.828C1197.39 368.828 1200.37 365.84 1200.37 362.169C1200.4 358.497 1197.41 355.509 1193.71 355.509Z" fill="#6957F0" fill-opacity="0.2"/>
</svg>
