<svg width="1323" height="580" viewBox="0 0 1323 580" fill="none" xmlns="http://www.w3.org/2000/svg">
<rect width="1323" height="580" rx="17" fill="#E5E2F9"/>
<path d="M716.756 250C713.682 250 711.377 252.369 711.377 255.507V272.753C705.422 267.439 697.609 264.408 689.349 264.408C677.332 264.408 666.852 270.896 661.131 280.502C655.411 270.875 644.931 264.408 632.914 264.408C624.674 264.408 616.841 267.439 610.886 272.753V255.507C610.907 252.369 608.581 250 605.507 250C602.476 250 600 252.476 600 255.507V297.086C600 315.229 614.771 330 632.914 330C644.931 330 655.411 323.469 661.131 313.778C666.852 323.469 677.332 330 689.349 330C707.492 330 722.263 315.229 722.263 297.086V255.507C722.263 252.476 719.787 250 716.756 250ZM610.651 297.086C610.651 296.489 610.63 295.891 610.736 295.272L610.822 294.504C610.864 294.205 610.907 293.906 610.886 293.906C612.359 282.978 621.537 275.037 632.679 275.037C645.101 275.037 654.813 284.707 654.813 297.065C654.813 309.274 644.888 319.2 632.679 319.2C620.534 319.221 610.651 309.296 610.651 297.086ZM689.605 319.221C677.396 319.221 667.471 309.296 667.471 297.086C667.471 284.749 677.204 275.059 689.605 275.059C700.747 275.059 709.925 282.999 711.377 293.543C711.377 293.863 711.419 294.162 711.462 294.504L711.547 295.251C711.654 295.848 711.633 296.467 711.633 297.065C711.612 309.296 701.75 319.221 689.605 319.221Z" fill="#6957F0" fill-opacity="0.2"/>
<path d="M627.043 282.509C623.351 282.509 620.384 285.497 620.384 289.169C620.384 292.861 623.372 295.828 627.043 295.828C630.715 295.828 633.703 292.84 633.703 289.169C633.703 285.497 630.715 282.509 627.043 282.509Z" fill="#6957F0" fill-opacity="0.2"/>
<path d="M683.714 282.509C680.022 282.509 677.055 285.497 677.055 289.169C677.055 292.861 680.043 295.828 683.714 295.828C687.386 295.828 690.374 292.84 690.374 289.169C690.395 285.497 687.407 282.509 683.714 282.509Z" fill="#6957F0" fill-opacity="0.2"/>
</svg>
