<svg width="23" height="23" viewBox="0 0 23 23" fill="none" xmlns="http://www.w3.org/2000/svg">
<path d="M10.2624 0.362535C5.08745 0.925035 0.924949 5.08754 0.362449 10.15C-0.200051 15.4375 2.83745 20.1625 7.44995 21.9625C7.78745 22.075 8.12495 21.85 8.12495 21.4V19.6C8.12495 19.6 7.67495 19.7125 7.11245 19.7125C5.53745 19.7125 4.86245 18.3625 4.74995 17.575C4.63745 17.125 4.41245 16.7875 4.07495 16.45C3.73745 16.3375 3.62495 16.3375 3.62495 16.225C3.62495 16 3.96245 16 4.07495 16C4.74995 16 5.31245 16.7875 5.53745 17.125C6.09995 18.025 6.77495 18.25 7.11245 18.25C7.56245 18.25 7.89995 18.1375 8.12495 18.025C8.23745 17.2375 8.57495 16.45 9.24995 16C6.66245 15.4375 4.74995 13.975 4.74995 11.5C4.74995 10.2625 5.31245 9.02504 6.09995 8.12504C5.98745 7.90004 5.87495 7.33754 5.87495 6.55004C5.87495 6.10004 5.87495 5.42504 6.21245 4.75004C6.21245 4.75004 7.78745 4.75004 9.36245 6.21254C9.92495 5.98754 10.7124 5.87504 11.4999 5.87504C12.2874 5.87504 13.0749 5.98754 13.7499 6.21254C15.2124 4.75004 16.8999 4.75004 16.8999 4.75004C17.1249 5.42504 17.1249 6.10004 17.1249 6.55004C17.1249 7.45004 17.0124 7.90004 16.8999 8.12504C17.6874 9.02504 18.2499 10.15 18.2499 11.5C18.2499 13.975 16.3374 15.4375 13.7499 16C14.4249 16.5625 14.8749 17.575 14.8749 18.5875V21.5125C14.8749 21.85 15.2124 22.1875 15.6624 22.075C19.8249 20.3875 22.7499 16.3375 22.7499 11.6125C22.7499 4.86254 17.0124 -0.424965 10.2624 0.362535Z" fill="#2E2E2E"/>
</svg>
