<svg width="31" height="31" viewBox="0 0 31 31" fill="none" xmlns="http://www.w3.org/2000/svg">
<path d="M15.1802 2.95086C19.4107 2.95086 19.6595 2.95086 21.4015 2.95086C22.8947 2.95086 23.6412 3.19677 24.1389 3.44267C24.8855 3.68858 25.3832 4.18039 25.8809 4.6722C26.3786 5.16401 26.8763 5.65582 27.1252 6.39353C27.374 6.88534 27.6229 7.86897 27.6229 9.3444C27.6229 11.0657 27.6229 11.5575 27.6229 15.7379C27.6229 19.9183 27.6229 20.4101 27.6229 22.1315C27.6229 23.6069 27.374 24.5905 27.1252 25.0823C26.8763 25.82 26.6275 26.3119 25.8809 26.8037C25.3832 27.2955 24.8855 27.7873 24.1389 28.0332C23.6412 28.2791 22.8947 28.525 21.4015 28.525C19.6595 28.525 19.4107 28.525 15.1802 28.525C10.9496 28.525 10.7008 28.525 8.95878 28.525C7.46565 28.525 6.71909 28.2791 6.22138 28.0332C5.47481 27.7873 4.9771 27.2955 4.47939 26.8037C3.98168 26.3119 3.48397 25.82 3.23511 25.0823C2.98626 24.5905 2.7374 23.6069 2.7374 22.1315C2.7374 20.4101 2.7374 19.9183 2.7374 15.7379C2.7374 11.5575 2.7374 11.0657 2.7374 9.3444C2.7374 7.86897 2.98626 6.88534 3.23511 6.39353C3.48397 5.65582 3.73282 5.16401 4.47939 4.6722C4.9771 4.18039 5.47481 3.68858 6.22138 3.44267C6.71909 3.19677 7.46565 2.95086 8.95878 2.95086C10.4519 2.95086 10.9496 2.95086 15.1802 2.95086ZM15.1802 0C10.9496 0 10.4519 0 8.95878 0C7.21679 0 6.22137 0.245905 5.22595 0.737715C4.23053 1.22953 3.23512 1.72134 2.48855 2.45905C1.74199 3.44267 0.995418 4.18039 0.746563 5.16401C0.248853 6.14763 0 7.37715 0 9.09849C0 10.8198 0 11.3116 0 15.492C0 19.6724 0 20.4101 0 21.8856C0 23.6069 0.248853 24.5905 0.746563 25.82C1.24427 26.8037 1.74199 27.7873 2.48855 28.525C3.23512 29.5086 4.23053 30.0004 5.22595 30.2463C6.22137 30.7381 7.21679 30.9841 8.95878 30.9841C10.7008 30.9841 11.1985 30.9841 15.1802 30.9841C19.4107 30.9841 19.9084 30.9841 21.4015 30.9841C23.1435 30.9841 24.1389 30.7381 25.1344 30.2463C26.1298 29.7545 27.1252 29.2627 27.8718 28.525C28.6183 27.5414 29.3649 26.8037 29.6137 25.82C30.1115 24.8364 30.3603 23.6069 30.3603 21.8856C30.3603 20.1642 30.3603 19.6724 30.3603 15.492C30.3603 11.3116 30.3603 10.5739 30.3603 9.09849C30.3603 7.37715 30.1115 6.39353 29.6137 5.16401C29.116 4.18039 28.6183 3.19677 27.8718 2.45905C27.1252 1.47543 26.1298 0.983621 25.1344 0.737715C24.1389 0.245905 23.1435 0 21.4015 0C19.9084 0 19.4107 0 15.1802 0Z" fill="#2E2E2E"/>
<path d="M15.1803 7.62305C10.7009 7.62305 7.21692 11.3116 7.21692 15.7379C7.21692 20.1642 10.7009 23.8528 15.1803 23.8528C19.6597 23.8528 23.1437 20.1642 23.1437 15.7379C23.1437 11.3116 19.4108 7.62305 15.1803 7.62305ZM15.1803 20.9019C12.4429 20.9019 9.95433 18.4429 9.95433 15.7379C9.95433 12.7871 12.194 10.5739 15.1803 10.5739C17.9177 10.5739 20.4062 13.033 20.4062 15.7379C20.1574 18.6888 17.9177 20.9019 15.1803 20.9019Z" fill="#2E2E2E"/>
<path d="M25.1344 7.37715C25.1344 8.36077 24.3878 9.34439 23.3924 9.34439C22.3969 9.34439 21.6504 8.60668 21.6504 7.37715C21.6504 6.14763 22.3969 5.40991 23.3924 5.40991C24.3878 5.40991 25.1344 6.39353 25.1344 7.37715Z" fill="#2E2E2E"/>
</svg>
